#N canvas 417 23 948 635 10;
#X obj 224 107 r onOff;
#X obj 226 403 s sendCounter;
#X obj 224 56 s onOff;
#X obj 224 16 tgl 15 0 empty empty empty 17 7 0 10 -262144 -1 -1 1
1;
#X obj 224 149 metro 1000;
#X obj 223 194 float;
#X obj 224 233 mod 10;
#X floatatom 225 341 5 0 0 0 - - -, f 5;
#X obj 296 187 + 1;
#X obj 465 267 dac~;
#X floatatom 466 169 5 0 0 0 - - -, f 5;
#X obj 466 200 osc~ 440;
#X connect 0 0 4 0;
#X connect 0 0 11 0;
#X connect 3 0 2 0;
#X connect 4 0 5 0;
#X connect 5 0 6 0;
#X connect 5 0 8 0;
#X connect 6 0 7 0;
#X connect 7 0 1 0;
#X connect 7 0 10 0;
#X connect 8 0 5 1;
#X connect 10 0 11 0;
#X connect 11 0 9 0;
#X connect 11 0 9 1;
